<?xml version="1.0" encoding="UTF-8" standalone="no"?>
<!-- Created with Inkscape (http://www.inkscape.org/) -->

<svg
   width="210mm"
   height="297mm"
   viewBox="0 0 210 297"
   version="1.1"
   id="svg1"
   xml:space="preserve"
   inkscape:version="1.3 (0e150ed6c4, 2023-07-21)"
   sodipodi:docname="logo_prototype.svg"
   xmlns:inkscape="http://www.inkscape.org/namespaces/inkscape"
   xmlns:sodipodi="http://sodipodi.sourceforge.net/DTD/sodipodi-0.dtd"
   xmlns="http://www.w3.org/2000/svg"
   xmlns:svg="http://www.w3.org/2000/svg"><sodipodi:namedview
     id="namedview1"
     pagecolor="#505050"
     bordercolor="#eeeeee"
     borderopacity="1"
     inkscape:showpageshadow="0"
     inkscape:pageopacity="0"
     inkscape:pagecheckerboard="0"
     inkscape:deskcolor="#505050"
     inkscape:document-units="mm"
     inkscape:zoom="0.55185386"
     inkscape:cx="863.45323"
     inkscape:cy="501.03844"
     inkscape:window-width="1920"
     inkscape:window-height="1043"
     inkscape:window-x="0"
     inkscape:window-y="0"
     inkscape:window-maximized="1"
     inkscape:current-layer="layer1" /><defs
     id="defs1" /><g
     inkscape:label="Layer 1"
     inkscape:groupmode="layer"
     id="layer1"><ellipse
       style="fill:#002255;stroke-width:0.674026"
       id="path1"
       cx="375.52066"
       cy="128.21426"
       rx="118.90176"
       ry="123.32455" /><path
       id="path2"
       style="fill:#f9f9f9"
       d="m 386.06255,46.843062 c -0.60077,0.09009 -1.18163,0.489892 -1.5105,1.039729 -0.16105,0.26927 -1.88483,3.461426 -3.83078,7.093624 -1.94591,3.632191 -3.70247,6.855174 -3.90363,7.162354 -0.20116,0.307176 -0.50995,0.655296 -0.68575,0.773596 -0.31022,0.2087 -0.37334,0.21673 -2.14974,0.26923 -1.00667,0.0298 -2.34395,0.091 -2.97191,0.13591 -1.29175,0.0923 -1.74261,0.0131 -2.43913,-0.42891 -0.46855,-0.29735 -0.21074,0.0579 -5.50044,-7.573699 -2.38848,-3.445921 -4.44205,-6.373226 -4.56354,-6.505546 -0.32019,-0.34872 -0.81806,-0.577084 -1.35754,-0.622184 -0.44213,-0.03692 -0.93562,0.117723 -7.84914,2.456697 -4.05751,1.372726 -7.45256,2.536072 -7.54476,2.585372 -0.24508,0.13118 -0.70245,0.676208 -0.83664,0.997355 -0.064,0.15324 -0.11628,0.499179 -0.11627,0.768429 0,0.269257 0.26677,3.880409 0.59273,8.024836 0.32596,4.1444 0.59272,7.7304 0.59273,7.96902 0,0.23862 -0.0555,0.5913 -0.12351,0.78393 -0.009,0.0266 -0.0227,0.0444 -0.032,0.0698 l 0.1385,0.40256 c 0,0 -0.31344,0.18031 -0.71417,0.46354 -0.11505,0.11102 -0.44683,0.34752 -0.62167,0.48628 -0.12677,0.11358 -3.83963,4.158 -4.68284,5.26521 -1.00138,1.31492 -1.35018,2.22968 -1.88004,3.32597 -0.62335,1.28974 -1.55202,3.5739 -1.6863,5.81711 -0.10687,1.78529 -0.61364,4.17032 0.97196,10.03705 0.55177,2.041564 0.7028,2.570695 2.43968,6.550755 0.42988,0.70552 3.83372,5.3892 4.35405,6.07571 4.55517,6.01006 12.84364,10.60478 25.34295,16.65205 l 10.21437,4.90461 c 8.51267,4.13538 14.29128,8.16017 17.33589,12.07368 3.10263,3.93159 3.39599,10.40449 1.90184,15.19865 -1.71147,5.49147 -5.07158,8.1293 -12.29047,10.25256 -17.90726,5.26698 -25.14901,0.53809 -32.28917,-3.56593 l -8.21808,-5.39429 -7.63646,-7.5102 c -0.66382,-1.07792 -1.27121,-2.18737 -1.84847,-3.31194 -13.05112,-15.38012 -8.05952,-28.39344 -11.56364,-43.30173 l -8.0579,1.22576 -0.2744,-0.0765 c -0.88648,0.26262 -2.70427,0.59851 -7.9065,1.53427 -4.42381,0.79575 -8.20908,1.50784 -8.41189,1.58234 -0.46846,0.17206 -0.90593,0.55453 -1.12551,0.98495 -0.1826,0.35792 -0.43465,1.94492 -0.91157,5.7335 -0.45287,3.59753 -0.68437,6.20603 -0.81804,9.22889 l -0.0543,1.22783 0.7922,0.31058 c 0.43569,0.17099 3.99284,1.47899 7.90443,2.9068 3.91158,1.42781 7.29369,2.67446 7.51582,2.76986 0.49128,0.21095 1.17814,0.9353 1.36632,1.44073 0.074,0.1987 0.46052,2.13261 0.85886,4.29793 0.79877,4.34203 0.81212,4.5225 0.40463,5.38314 -0.18812,0.39731 -0.81589,1.0139 -4.96869,4.87929 -6.88892,6.41214 -7.41003,6.91114 -7.5954,7.27449 -0.21967,0.43053 -0.28783,0.96894 -0.17518,1.38699 0.10553,0.39161 6.36329,12.56741 6.66367,12.96562 0.27628,0.36626 0.98712,0.70745 1.47433,0.70745 0.21379,0 3.87322,-0.78747 8.13232,-1.74976 5.36908,-1.21307 7.89947,-1.74969 8.25169,-1.75028 0.3774,-6.4e-4 0.64546,0.0607 1.04232,0.23926 0.49296,0.22175 0.77444,0.48976 3.64629,3.47265 3.41916,3.55139 3.47937,3.63092 3.54397,4.65657 0.0349,0.55503 -0.0893,1.08913 -1.95957,8.4124 -1.21179,4.74501 -1.9973,7.97596 -1.9973,8.21707 0,0.44101 0.30024,1.13541 0.61443,1.42162 0.37223,0.33908 12.4486,7.07927 12.80026,7.14427 0.42721,0.0789 1.08529,-0.0385 1.43453,-0.25632 0.14529,-0.0906 1.10376,-1.01494 2.13011,-2.05362 1.02635,-1.03868 3.62332,-3.66921 5.77122,-5.84615 4.30044,-4.35897 4.21101,-4.28569 5.31647,-4.35529 0.52312,-0.0329 1.08453,0.0729 4.78369,0.9002 3.7251,0.83313 4.23976,0.9678 4.62762,1.21181 0.9245,0.5816 0.76509,0.19592 3.63131,8.80412 l 2.60087,7.81089 0.40825,0.39842 c 0.2663,0.26008 0.54859,0.44199 0.8139,0.52349 1.00272,0.30817 6.19204,0.0392 12.17497,-0.63046 2.60314,-0.29139 2.76677,-0.32505 3.24114,-0.66869 0.67927,-0.49206 0.62503,-0.29306 2.46962,-9.05784 1.36863,-6.50324 1.74218,-8.15212 1.91409,-8.44548 0.22233,-0.37937 0.76534,-0.92972 1.08211,-1.09709 0.10092,-0.0533 1.8599,-0.73269 3.9088,-1.50999 l 3.72536,-1.41335 0.68264,0.0336 c 0.52804,0.0261 0.76869,0.0819 1.06144,0.24546 0.20821,0.11637 3.1315,2.43089 6.49624,5.14336 3.36477,2.71247 3.68283,2.85429 3.85544,2.95631 0.3973,0.23483 -0.45366,-0.85397 4.84281,-4.14482 6.87109,-7.47302 5.98131,-5.91032 8.47807,-8.79885 4.45886,-5.1585 1.2979,-4.01529 -4.9295,-10.54085 -1.79232,-1.87592 -2.23984,-1.57216 -3.3486,-3.91783 -1.8661,-3.05244 -0.81163,-13.74221 -1.49879,-16.37569 -0.87289,-3.34531 -2.06294,-8.88116 -7.16452,-16.29175 -4.72666,-6.6851 -13.16313,-11.91652 -25.6896,-17.87665 l -11.60446,-4.14083 c -9.20883,-4.35233 -15.87589,-6.94733 -18.67742,-10.21126 -2.72993,-3.289465 -3.42264,-7.091285 -2.07791,-11.406035 1.60281,-5.1428 5.42021,-8.30447 11.45253,-9.48469 1.52259,-0.29053 3.15409,-0.45172 4.89428,-0.48317 5.22053,-0.0944 11.42048,0.97741 18.59938,3.21479 5.51107,1.71758 13.28094,6.10406 18.83137,9.12493 1.22788,0.6683 2.46826,1.38569 3.7145,2.12546 0.47825,0.15834 1.81313,0.94477 5.61723,4.416264 5.7342,5.232841 4.93164,5.655561 9.19479,11.592581 8.8948,12.38723 8.27442,12.2576 11.23084,16.46153 0.68907,0.97982 2.84478,0.46691 4.51445,-0.52142 0.13807,-0.0817 0.27238,-0.13629 0.40721,-0.19534 0.75804,-0.53542 2.42772,-1.37778 7.2502,-3.78943 5.89536,-2.94817 7.43794,-3.75353 7.68325,-4.01009 0.30313,-0.317 0.5824,-0.94867 0.5824,-1.31827 0,-0.10455 -0.74626,-3.63155 -1.6583,-7.83776 -1.12454,-5.1862 -1.71749,-7.75548 -1.84175,-7.98246 -0.22147,-0.40454 -0.79507,-0.8588 -1.22369,-0.96893 -0.17267,-0.0444 -3.9524,-0.31241 -8.39949,-0.59583 -4.44711,-0.28341 -8.25249,-0.55497 -8.45582,-0.60307 -0.4023,-0.0951 -1.12957,-0.530141 -1.42368,-0.851625 -0.10165,-0.1111 -0.74242,-1.22595 -1.4242,-2.47789 -1.31443,-2.41362 -1.44693,-2.76982 -1.33946,-3.59668 0.0281,-0.21602 0.11391,-0.52585 0.19121,-0.68884 0.0773,-0.16298 1.97158,-3.38271 4.20904,-7.15461 2.23746,-3.77187 4.11637,-7.00635 4.17597,-7.18767 0.14607,-0.44468 0.0623,-1.16639 -0.18241,-1.57096 -0.24634,-0.40731 -11.19675,-11.5741 -11.50731,-11.73469 -0.39527,-0.20441 -0.9679,-0.29434 -1.38183,-0.21704 -0.26996,0.0504 -2.60985,1.3063 -7.67292,4.11809 l -7.28431,4.04524 -0.6103,0.0387 c -0.33574,0.0213 -0.76349,-0.002 -0.95033,-0.0527 -0.18684,-0.0505 -1.29155,-0.62783 -2.45514,-1.28261 -2.25183,-1.26711 -2.57285,-1.51737 -2.98432,-2.3275 -0.25695,-0.5059 -0.20518,0.37221 -0.56585,-9.609752 -0.31139,-8.618002 -0.25247,-8.093871 -0.98496,-8.752437 -0.31196,-0.28048 -0.53873,-0.401108 -0.94309,-0.501778 -0.29279,-0.07289 -3.82537,-0.919325 -7.85017,-1.881022 -5.81838,-1.390267 -7.38836,-1.738154 -7.66258,-1.697054 z"
       sodipodi:nodetypes="cscscccssscsccssssccccsssscscccsscccccccsssscccscsssssssssscssssscsscsssccccssssssccssscssssccccsccsscsssscssssssscssssscsssccsccssssscc" /></g></svg>
